<?xml version="1.0" encoding="UTF-8" standalone="no"?>
<!DOCTYPE svg PUBLIC "-//W3C//DTD SVG 1.1//EN"
 "http://www.w3.org/Graphics/SVG/1.1/DTD/svg11.dtd">
<!-- Generated by graphviz version 13.1.2 (20250808.2320)
 -->
<!-- Title: snakemake_dag Pages: 1 -->
<svg width="316pt" height="620pt"
 viewBox="0.00 0.00 316.00 620.00" xmlns="http://www.w3.org/2000/svg" xmlns:xlink="http://www.w3.org/1999/xlink">
<g id="graph0" class="graph" transform="scale(1 1) rotate(0) translate(4 616)">
<title>snakemake_dag</title>
<polygon fill="white" stroke="none" points="-4,4 -4,-616 311.55,-616 311.55,4 -4,4"/>
<!-- 0 -->
<g id="node1" class="node">
<title>0</title>
<path fill="none" stroke="#d85656" stroke-width="2" d="M149.75,-36C149.75,-36 119.75,-36 119.75,-36 113.75,-36 107.75,-30 107.75,-24 107.75,-24 107.75,-12 107.75,-12 107.75,-6 113.75,0 119.75,0 119.75,0 149.75,0 149.75,0 155.75,0 161.75,-6 161.75,-12 161.75,-12 161.75,-24 161.75,-24 161.75,-30 155.75,-36 149.75,-36"/>
<text xml:space="preserve" text-anchor="middle" x="134.75" y="-14.12" font-family="sans" font-size="10.00">all</text>
</g>
<!-- 1 -->
<g id="node2" class="node">
<title>1</title>
<path fill="none" stroke="#56d88a" stroke-width="2" d="M113.5,-108C113.5,-108 12,-108 12,-108 6,-108 0,-102 0,-96 0,-96 0,-84 0,-84 0,-78 6,-72 12,-72 12,-72 113.5,-72 113.5,-72 119.5,-72 125.5,-78 125.5,-84 125.5,-84 125.5,-96 125.5,-96 125.5,-102 119.5,-108 113.5,-108"/>
<text xml:space="preserve" text-anchor="middle" x="62.75" y="-86.12" font-family="sans" font-size="10.00">repeatmasker_annotation</text>
</g>
<!-- 1&#45;&gt;0 -->
<g id="edge1" class="edge">
<title>1&#45;&gt;0</title>
<path fill="none" stroke="grey" stroke-width="2" d="M80.92,-71.34C88.87,-63.6 98.38,-54.36 107.18,-45.81"/>
<polygon fill="grey" stroke="grey" stroke-width="2" points="109.44,-48.49 114.17,-39.01 104.56,-43.47 109.44,-48.49"/>
</g>
<!-- 2 -->
<g id="node3" class="node">
<title>2</title>
<path fill="none" stroke="#88d856" stroke-width="2" d="M128.75,-540C128.75,-540 16.75,-540 16.75,-540 10.75,-540 4.75,-534 4.75,-528 4.75,-528 4.75,-516 4.75,-516 4.75,-510 10.75,-504 16.75,-504 16.75,-504 128.75,-504 128.75,-504 134.75,-504 140.75,-510 140.75,-516 140.75,-516 140.75,-528 140.75,-528 140.75,-534 134.75,-540 128.75,-540"/>
<text xml:space="preserve" text-anchor="middle" x="72.75" y="-523.75" font-family="sans" font-size="10.00">prep_genome</text>
<text xml:space="preserve" text-anchor="middle" x="72.75" y="-512.5" font-family="sans" font-size="10.00">species: Danaus_plexippus</text>
</g>
<!-- 2&#45;&gt;1 -->
<g id="edge3" class="edge">
<title>2&#45;&gt;1</title>
<path fill="none" stroke="grey" stroke-width="2" d="M56.77,-503.19C35.56,-477.63 0.75,-428.2 0.75,-379 0.75,-379 0.75,-379 0.75,-233 0.75,-190.68 24.17,-146.75 42.22,-119.17"/>
<polygon fill="grey" stroke="grey" stroke-width="2" points="44.87,-121.49 47.6,-111.25 39.08,-117.55 44.87,-121.49"/>
</g>
<!-- 5 -->
<g id="node6" class="node">
<title>5</title>
<path fill="none" stroke="#568ad8" stroke-width="2" d="M118,-252C118,-252 85.5,-252 85.5,-252 79.5,-252 73.5,-246 73.5,-240 73.5,-240 73.5,-228 73.5,-228 73.5,-222 79.5,-216 85.5,-216 85.5,-216 118,-216 118,-216 124,-216 130,-222 130,-228 130,-228 130,-240 130,-240 130,-246 124,-252 118,-252"/>
<text xml:space="preserve" text-anchor="middle" x="101.75" y="-230.12" font-family="sans" font-size="10.00">testrainer</text>
</g>
<!-- 2&#45;&gt;5 -->
<g id="edge8" class="edge">
<title>2&#45;&gt;5</title>
<path fill="none" stroke="grey" stroke-width="2" d="M66.87,-503.08C54.74,-463.08 30.29,-364.06 57.75,-288 61.1,-278.72 66.86,-269.92 73.13,-262.25"/>
<polygon fill="grey" stroke="grey" stroke-width="2" points="75.73,-264.59 79.8,-254.81 70.52,-259.92 75.73,-264.59"/>
</g>
<!-- 8 -->
<g id="node9" class="node">
<title>8</title>
<path fill="none" stroke="#59d856" stroke-width="2" d="M131.38,-468C131.38,-468 80.12,-468 80.12,-468 74.12,-468 68.12,-462 68.12,-456 68.12,-456 68.12,-444 68.12,-444 68.12,-438 74.12,-432 80.12,-432 80.12,-432 131.38,-432 131.38,-432 137.38,-432 143.38,-438 143.38,-444 143.38,-444 143.38,-456 143.38,-456 143.38,-462 137.38,-468 131.38,-468"/>
<text xml:space="preserve" text-anchor="middle" x="105.75" y="-446.12" font-family="sans" font-size="10.00">repeatmasker</text>
</g>
<!-- 2&#45;&gt;8 -->
<g id="edge12" class="edge">
<title>2&#45;&gt;8</title>
<path fill="none" stroke="grey" stroke-width="2" d="M81.08,-503.34C84.34,-496.43 88.16,-488.31 91.82,-480.56"/>
<polygon fill="grey" stroke="grey" stroke-width="2" points="94.92,-482.18 96.02,-471.64 88.59,-479.19 94.92,-482.18"/>
</g>
<!-- 3 -->
<g id="node4" class="node">
<title>3</title>
<path fill="none" stroke="#d8bc56" stroke-width="2" d="M190.38,-612C190.38,-612 85.12,-612 85.12,-612 79.12,-612 73.12,-606 73.12,-600 73.12,-600 73.12,-588 73.12,-588 73.12,-582 79.12,-576 85.12,-576 85.12,-576 190.38,-576 190.38,-576 196.38,-576 202.38,-582 202.38,-588 202.38,-588 202.38,-600 202.38,-600 202.38,-606 196.38,-612 190.38,-612"/>
<text xml:space="preserve" text-anchor="middle" x="137.75" y="-595.75" font-family="sans" font-size="10.00">check_and_configure_env</text>
<text xml:space="preserve" text-anchor="middle" x="137.75" y="-584.5" font-family="sans" font-size="10.00">outdir: results</text>
</g>
<!-- 3&#45;&gt;2 -->
<g id="edge5" class="edge">
<title>3&#45;&gt;2</title>
<path fill="none" stroke="grey" stroke-width="2" d="M121.35,-575.34C114.32,-567.77 105.95,-558.75 98.15,-550.35"/>
<polygon fill="grey" stroke="grey" stroke-width="2" points="100.8,-548.07 91.43,-543.12 95.67,-552.83 100.8,-548.07"/>
</g>
<!-- 10 -->
<g id="node11" class="node">
<title>10</title>
<path fill="none" stroke="#88d856" stroke-width="2" d="M236.75,-540C236.75,-540 172.75,-540 172.75,-540 166.75,-540 160.75,-534 160.75,-528 160.75,-528 160.75,-516 160.75,-516 160.75,-510 166.75,-504 172.75,-504 172.75,-504 236.75,-504 236.75,-504 242.75,-504 248.75,-510 248.75,-516 248.75,-516 248.75,-528 248.75,-528 248.75,-534 242.75,-540 236.75,-540"/>
<text xml:space="preserve" text-anchor="middle" x="204.75" y="-523.75" font-family="sans" font-size="10.00">prep_genome</text>
<text xml:space="preserve" text-anchor="middle" x="204.75" y="-512.5" font-family="sans" font-size="10.00">species: dummy</text>
</g>
<!-- 3&#45;&gt;10 -->
<g id="edge15" class="edge">
<title>3&#45;&gt;10</title>
<path fill="none" stroke="grey" stroke-width="2" d="M154.66,-575.34C161.98,-567.69 170.72,-558.56 178.83,-550.08"/>
<polygon fill="grey" stroke="grey" stroke-width="2" points="181.14,-552.73 185.52,-543.09 176.08,-547.89 181.14,-552.73"/>
</g>
<!-- 4 -->
<g id="node5" class="node">
<title>4</title>
<path fill="none" stroke="#bed856" stroke-width="2" d="M177.38,-180C177.38,-180 102.12,-180 102.12,-180 96.12,-180 90.12,-174 90.12,-168 90.12,-168 90.12,-156 90.12,-156 90.12,-150 96.12,-144 102.12,-144 102.12,-144 177.38,-144 177.38,-144 183.38,-144 189.38,-150 189.38,-156 189.38,-156 189.38,-168 189.38,-168 189.38,-174 183.38,-180 177.38,-180"/>
<text xml:space="preserve" text-anchor="middle" x="139.75" y="-158.12" font-family="sans" font-size="10.00">cluster_all_species</text>
</g>
<!-- 4&#45;&gt;1 -->
<g id="edge4" class="edge">
<title>4&#45;&gt;1</title>
<path fill="none" stroke="grey" stroke-width="2" d="M120.32,-143.34C111.72,-135.52 101.43,-126.16 91.94,-117.53"/>
<polygon fill="grey" stroke="grey" stroke-width="2" points="94.44,-115.07 84.68,-110.94 89.73,-120.25 94.44,-115.07"/>
</g>
<!-- 14 -->
<g id="node15" class="node">
<title>14</title>
<path fill="none" stroke="#56d88a" stroke-width="2" d="M257.5,-108C257.5,-108 156,-108 156,-108 150,-108 144,-102 144,-96 144,-96 144,-84 144,-84 144,-78 150,-72 156,-72 156,-72 257.5,-72 257.5,-72 263.5,-72 269.5,-78 269.5,-84 269.5,-84 269.5,-96 269.5,-96 269.5,-102 263.5,-108 257.5,-108"/>
<text xml:space="preserve" text-anchor="middle" x="206.75" y="-86.12" font-family="sans" font-size="10.00">repeatmasker_annotation</text>
</g>
<!-- 4&#45;&gt;14 -->
<g id="edge20" class="edge">
<title>4&#45;&gt;14</title>
<path fill="none" stroke="grey" stroke-width="2" d="M156.66,-143.34C163.98,-135.69 172.72,-126.56 180.83,-118.08"/>
<polygon fill="grey" stroke="grey" stroke-width="2" points="183.14,-120.73 187.52,-111.09 178.08,-115.89 183.14,-120.73"/>
</g>
<!-- 5&#45;&gt;4 -->
<g id="edge6" class="edge">
<title>5&#45;&gt;4</title>
<path fill="none" stroke="grey" stroke-width="2" d="M111.34,-215.34C115.14,-208.34 119.6,-200.12 123.86,-192.28"/>
<polygon fill="grey" stroke="grey" stroke-width="2" points="126.89,-194.02 128.59,-183.56 120.74,-190.68 126.89,-194.02"/>
</g>
<!-- 6 -->
<g id="node7" class="node">
<title>6</title>
<path fill="none" stroke="#56c1d8" stroke-width="2" d="M132.5,-324C132.5,-324 79,-324 79,-324 73,-324 67,-318 67,-312 67,-312 67,-300 67,-300 67,-294 73,-288 79,-288 79,-288 132.5,-288 132.5,-288 138.5,-288 144.5,-294 144.5,-300 144.5,-300 144.5,-312 144.5,-312 144.5,-318 138.5,-324 132.5,-324"/>
<text xml:space="preserve" text-anchor="middle" x="105.75" y="-302.12" font-family="sans" font-size="10.00">repeatmodeler</text>
</g>
<!-- 6&#45;&gt;5 -->
<g id="edge9" class="edge">
<title>6&#45;&gt;5</title>
<path fill="none" stroke="grey" stroke-width="2" d="M104.74,-287.34C104.36,-280.75 103.93,-273.08 103.5,-265.67"/>
<polygon fill="grey" stroke="grey" stroke-width="2" points="107.01,-265.71 102.95,-255.92 100.02,-266.11 107.01,-265.71"/>
</g>
<!-- 7 -->
<g id="node8" class="node">
<title>7</title>
<path fill="none" stroke="#d88d56" stroke-width="2" d="M120.75,-396C120.75,-396 90.75,-396 90.75,-396 84.75,-396 78.75,-390 78.75,-384 78.75,-384 78.75,-372 78.75,-372 78.75,-366 84.75,-360 90.75,-360 90.75,-360 120.75,-360 120.75,-360 126.75,-360 132.75,-366 132.75,-372 132.75,-372 132.75,-384 132.75,-384 132.75,-390 126.75,-396 120.75,-396"/>
<text xml:space="preserve" text-anchor="middle" x="105.75" y="-374.12" font-family="sans" font-size="10.00">build_db</text>
</g>
<!-- 7&#45;&gt;6 -->
<g id="edge10" class="edge">
<title>7&#45;&gt;6</title>
<path fill="none" stroke="grey" stroke-width="2" d="M105.75,-359.34C105.75,-352.75 105.75,-345.08 105.75,-337.67"/>
<polygon fill="grey" stroke="grey" stroke-width="2" points="109.25,-337.93 105.75,-327.93 102.25,-337.93 109.25,-337.93"/>
</g>
<!-- 8&#45;&gt;7 -->
<g id="edge11" class="edge">
<title>8&#45;&gt;7</title>
<path fill="none" stroke="grey" stroke-width="2" d="M105.75,-431.34C105.75,-424.75 105.75,-417.08 105.75,-409.67"/>
<polygon fill="grey" stroke="grey" stroke-width="2" points="109.25,-409.93 105.75,-399.93 102.25,-409.93 109.25,-409.93"/>
</g>
<!-- 9 -->
<g id="node10" class="node">
<title>9</title>
<path fill="none" stroke="#568ad8" stroke-width="2" d="M193,-252C193,-252 160.5,-252 160.5,-252 154.5,-252 148.5,-246 148.5,-240 148.5,-240 148.5,-228 148.5,-228 148.5,-222 154.5,-216 160.5,-216 160.5,-216 193,-216 193,-216 199,-216 205,-222 205,-228 205,-228 205,-240 205,-240 205,-246 199,-252 193,-252"/>
<text xml:space="preserve" text-anchor="middle" x="176.75" y="-230.12" font-family="sans" font-size="10.00">testrainer</text>
</g>
<!-- 9&#45;&gt;4 -->
<g id="edge7" class="edge">
<title>9&#45;&gt;4</title>
<path fill="none" stroke="grey" stroke-width="2" d="M167.41,-215.34C163.72,-208.34 159.37,-200.12 155.23,-192.28"/>
<polygon fill="grey" stroke="grey" stroke-width="2" points="158.39,-190.78 150.63,-183.58 152.21,-194.05 158.39,-190.78"/>
</g>
<!-- 10&#45;&gt;9 -->
<g id="edge13" class="edge">
<title>10&#45;&gt;9</title>
<path fill="none" stroke="grey" stroke-width="2" d="M200.06,-503.46C197.5,-493.2 194.5,-479.95 192.75,-468 182.19,-395.99 178.57,-310.41 177.35,-265.69"/>
<polygon fill="grey" stroke="grey" stroke-width="2" points="180.86,-265.87 177.12,-255.96 173.86,-266.04 180.86,-265.87"/>
</g>
<!-- 13 -->
<g id="node14" class="node">
<title>13</title>
<path fill="none" stroke="#59d856" stroke-width="2" d="M265.38,-468C265.38,-468 214.12,-468 214.12,-468 208.12,-468 202.12,-462 202.12,-456 202.12,-456 202.12,-444 202.12,-444 202.12,-438 208.12,-432 214.12,-432 214.12,-432 265.38,-432 265.38,-432 271.38,-432 277.38,-438 277.38,-444 277.38,-444 277.38,-456 277.38,-456 277.38,-462 271.38,-468 265.38,-468"/>
<text xml:space="preserve" text-anchor="middle" x="239.75" y="-446.12" font-family="sans" font-size="10.00">repeatmasker</text>
</g>
<!-- 10&#45;&gt;13 -->
<g id="edge18" class="edge">
<title>10&#45;&gt;13</title>
<path fill="none" stroke="grey" stroke-width="2" d="M213.58,-503.34C217.08,-496.34 221.19,-488.12 225.11,-480.28"/>
<polygon fill="grey" stroke="grey" stroke-width="2" points="228.1,-482.12 229.45,-471.61 221.84,-478.99 228.1,-482.12"/>
</g>
<!-- 10&#45;&gt;14 -->
<g id="edge19" class="edge">
<title>10&#45;&gt;14</title>
<path fill="none" stroke="grey" stroke-width="2" d="M245.2,-503.16C260.35,-494.58 276.37,-482.88 286.75,-468 309.94,-434.75 306.75,-419.54 306.75,-379 306.75,-379 306.75,-379 306.75,-233 306.75,-185.8 269.36,-143.23 240.3,-117.27"/>
<polygon fill="grey" stroke="grey" stroke-width="2" points="242.61,-114.64 232.74,-110.78 238.05,-119.95 242.61,-114.64"/>
</g>
<!-- 11 -->
<g id="node12" class="node">
<title>11</title>
<path fill="none" stroke="#56c1d8" stroke-width="2" d="M266.5,-324C266.5,-324 213,-324 213,-324 207,-324 201,-318 201,-312 201,-312 201,-300 201,-300 201,-294 207,-288 213,-288 213,-288 266.5,-288 266.5,-288 272.5,-288 278.5,-294 278.5,-300 278.5,-300 278.5,-312 278.5,-312 278.5,-318 272.5,-324 266.5,-324"/>
<text xml:space="preserve" text-anchor="middle" x="239.75" y="-302.12" font-family="sans" font-size="10.00">repeatmodeler</text>
</g>
<!-- 11&#45;&gt;9 -->
<g id="edge14" class="edge">
<title>11&#45;&gt;9</title>
<path fill="none" stroke="grey" stroke-width="2" d="M223.85,-287.34C217.04,-279.77 208.93,-270.75 201.37,-262.35"/>
<polygon fill="grey" stroke="grey" stroke-width="2" points="204.18,-260.24 194.89,-255.15 198.97,-264.93 204.18,-260.24"/>
</g>
<!-- 12 -->
<g id="node13" class="node">
<title>12</title>
<path fill="none" stroke="#d88d56" stroke-width="2" d="M254.75,-396C254.75,-396 224.75,-396 224.75,-396 218.75,-396 212.75,-390 212.75,-384 212.75,-384 212.75,-372 212.75,-372 212.75,-366 218.75,-360 224.75,-360 224.75,-360 254.75,-360 254.75,-360 260.75,-360 266.75,-366 266.75,-372 266.75,-372 266.75,-384 266.75,-384 266.75,-390 260.75,-396 254.75,-396"/>
<text xml:space="preserve" text-anchor="middle" x="239.75" y="-374.12" font-family="sans" font-size="10.00">build_db</text>
</g>
<!-- 12&#45;&gt;11 -->
<g id="edge16" class="edge">
<title>12&#45;&gt;11</title>
<path fill="none" stroke="grey" stroke-width="2" d="M239.75,-359.34C239.75,-352.75 239.75,-345.08 239.75,-337.67"/>
<polygon fill="grey" stroke="grey" stroke-width="2" points="243.25,-337.93 239.75,-327.93 236.25,-337.93 243.25,-337.93"/>
</g>
<!-- 13&#45;&gt;12 -->
<g id="edge17" class="edge">
<title>13&#45;&gt;12</title>
<path fill="none" stroke="grey" stroke-width="2" d="M239.75,-431.34C239.75,-424.75 239.75,-417.08 239.75,-409.67"/>
<polygon fill="grey" stroke="grey" stroke-width="2" points="243.25,-409.93 239.75,-399.93 236.25,-409.93 243.25,-409.93"/>
</g>
<!-- 14&#45;&gt;0 -->
<g id="edge2" class="edge">
<title>14&#45;&gt;0</title>
<path fill="none" stroke="grey" stroke-width="2" d="M188.58,-71.34C180.63,-63.6 171.12,-54.36 162.32,-45.81"/>
<polygon fill="grey" stroke="grey" stroke-width="2" points="164.94,-43.47 155.33,-39.01 160.06,-48.49 164.94,-43.47"/>
</g>
</g>
</svg>
