<?xml version="1.0" encoding="UTF-8" standalone="no"?>
<!DOCTYPE svg PUBLIC "-//W3C//DTD SVG 1.1//EN"
 "http://www.w3.org/Graphics/SVG/1.1/DTD/svg11.dtd">
<!-- Generated by graphviz version 13.1.2 (20250808.2320)
 -->
<!-- Title: snakemake_dag Pages: 1 -->
<svg width="344pt" height="554pt"
 viewBox="0.00 0.00 344.00 554.00" xmlns="http://www.w3.org/2000/svg" xmlns:xlink="http://www.w3.org/1999/xlink">
<g id="graph0" class="graph" transform="scale(1 1) rotate(0) translate(4 549.75)">
<title>snakemake_dag</title>
<polygon fill="white" stroke="none" points="-4,4 -4,-549.75 340,-549.75 340,4 -4,4"/>
<!-- 0 -->
<g id="node1" class="node">
<title>0</title>
<path fill="none" stroke="#d85656" stroke-width="2" d="M179,-36C179,-36 149,-36 149,-36 143,-36 137,-30 137,-24 137,-24 137,-12 137,-12 137,-6 143,0 149,0 149,0 179,0 179,0 185,0 191,-6 191,-12 191,-12 191,-24 191,-24 191,-30 185,-36 179,-36"/>
<text xml:space="preserve" text-anchor="middle" x="164" y="-14.12" font-family="sans" font-size="10.00">all</text>
</g>
<!-- 1 -->
<g id="node2" class="node">
<title>1</title>
<path fill="none" stroke="#56d873" stroke-width="2" d="M142.75,-108C142.75,-108 41.25,-108 41.25,-108 35.25,-108 29.25,-102 29.25,-96 29.25,-96 29.25,-84 29.25,-84 29.25,-78 35.25,-72 41.25,-72 41.25,-72 142.75,-72 142.75,-72 148.75,-72 154.75,-78 154.75,-84 154.75,-84 154.75,-96 154.75,-96 154.75,-102 148.75,-108 142.75,-108"/>
<text xml:space="preserve" text-anchor="middle" x="92" y="-86.12" font-family="sans" font-size="10.00">repeatmasker_annotation</text>
</g>
<!-- 1&#45;&gt;0 -->
<g id="edge1" class="edge">
<title>1&#45;&gt;0</title>
<path fill="none" stroke="grey" stroke-width="2" d="M110.17,-71.34C118.12,-63.6 127.63,-54.36 136.43,-45.81"/>
<polygon fill="grey" stroke="grey" stroke-width="2" points="138.69,-48.49 143.42,-39.01 133.81,-43.47 138.69,-48.49"/>
</g>
<!-- 2 -->
<g id="node3" class="node">
<title>2</title>
<path fill="none" stroke="#afd856" stroke-width="2" d="M124,-545.75C124,-545.75 12,-545.75 12,-545.75 6,-545.75 0,-539.75 0,-533.75 0,-533.75 0,-516 0,-516 0,-510 6,-504 12,-504 12,-504 124,-504 124,-504 130,-504 136,-510 136,-516 136,-516 136,-533.75 136,-533.75 136,-539.75 130,-545.75 124,-545.75"/>
<text xml:space="preserve" text-anchor="middle" x="68" y="-532.25" font-family="sans" font-size="10.00">prep_genome</text>
<text xml:space="preserve" text-anchor="middle" x="68" y="-521" font-family="sans" font-size="10.00">outdir: results</text>
<text xml:space="preserve" text-anchor="middle" x="68" y="-509.75" font-family="sans" font-size="10.00">species: Danaus_plexippus</text>
</g>
<!-- 2&#45;&gt;1 -->
<g id="edge3" class="edge">
<title>2&#45;&gt;1</title>
<path fill="none" stroke="grey" stroke-width="2" d="M58.99,-503.21C47.76,-475.5 30,-424.5 30,-379 30,-379 30,-379 30,-233 30,-190.68 53.42,-146.75 71.47,-119.17"/>
<polygon fill="grey" stroke="grey" stroke-width="2" points="74.12,-121.49 76.85,-111.25 68.33,-117.55 74.12,-121.49"/>
</g>
<!-- 4 -->
<g id="node5" class="node">
<title>4</title>
<path fill="none" stroke="#5692d8" stroke-width="2" d="M147.25,-252C147.25,-252 114.75,-252 114.75,-252 108.75,-252 102.75,-246 102.75,-240 102.75,-240 102.75,-228 102.75,-228 102.75,-222 108.75,-216 114.75,-216 114.75,-216 147.25,-216 147.25,-216 153.25,-216 159.25,-222 159.25,-228 159.25,-228 159.25,-240 159.25,-240 159.25,-246 153.25,-252 147.25,-252"/>
<text xml:space="preserve" text-anchor="middle" x="131" y="-230.12" font-family="sans" font-size="10.00">testrainer</text>
</g>
<!-- 2&#45;&gt;4 -->
<g id="edge7" class="edge">
<title>2&#45;&gt;4</title>
<path fill="none" stroke="grey" stroke-width="2" d="M65.61,-503.04C61.6,-460.72 56.71,-362.39 87,-288 90.72,-278.86 96.61,-270.11 102.89,-262.44"/>
<polygon fill="grey" stroke="grey" stroke-width="2" points="105.49,-264.79 109.51,-254.99 100.25,-260.14 105.49,-264.79"/>
</g>
<!-- 7 -->
<g id="node8" class="node">
<title>7</title>
<path fill="none" stroke="#70d856" stroke-width="2" d="M160.62,-468C160.62,-468 109.38,-468 109.38,-468 103.38,-468 97.38,-462 97.38,-456 97.38,-456 97.38,-444 97.38,-444 97.38,-438 103.38,-432 109.38,-432 109.38,-432 160.62,-432 160.62,-432 166.62,-432 172.62,-438 172.62,-444 172.62,-444 172.62,-456 172.62,-456 172.62,-462 166.62,-468 160.62,-468"/>
<text xml:space="preserve" text-anchor="middle" x="135" y="-446.12" font-family="sans" font-size="10.00">repeatmasker</text>
</g>
<!-- 2&#45;&gt;7 -->
<g id="edge11" class="edge">
<title>2&#45;&gt;7</title>
<path fill="none" stroke="grey" stroke-width="2" d="M87.02,-503.19C94.25,-495.32 102.59,-486.25 110.28,-477.89"/>
<polygon fill="grey" stroke="grey" stroke-width="2" points="112.64,-480.49 116.83,-470.76 107.49,-475.75 112.64,-480.49"/>
</g>
<!-- 3 -->
<g id="node4" class="node">
<title>3</title>
<path fill="none" stroke="#d8cb56" stroke-width="2" d="M206.62,-180C206.62,-180 131.38,-180 131.38,-180 125.38,-180 119.38,-174 119.38,-168 119.38,-168 119.38,-156 119.38,-156 119.38,-150 125.38,-144 131.38,-144 131.38,-144 206.62,-144 206.62,-144 212.62,-144 218.62,-150 218.62,-156 218.62,-156 218.62,-168 218.62,-168 218.62,-174 212.62,-180 206.62,-180"/>
<text xml:space="preserve" text-anchor="middle" x="169" y="-158.12" font-family="sans" font-size="10.00">cluster_all_species</text>
</g>
<!-- 3&#45;&gt;1 -->
<g id="edge4" class="edge">
<title>3&#45;&gt;1</title>
<path fill="none" stroke="grey" stroke-width="2" d="M149.57,-143.34C140.97,-135.52 130.68,-126.16 121.19,-117.53"/>
<polygon fill="grey" stroke="grey" stroke-width="2" points="123.69,-115.07 113.93,-110.94 118.98,-120.25 123.69,-115.07"/>
</g>
<!-- 13 -->
<g id="node14" class="node">
<title>13</title>
<path fill="none" stroke="#56d873" stroke-width="2" d="M286.75,-108C286.75,-108 185.25,-108 185.25,-108 179.25,-108 173.25,-102 173.25,-96 173.25,-96 173.25,-84 173.25,-84 173.25,-78 179.25,-72 185.25,-72 185.25,-72 286.75,-72 286.75,-72 292.75,-72 298.75,-78 298.75,-84 298.75,-84 298.75,-96 298.75,-96 298.75,-102 292.75,-108 286.75,-108"/>
<text xml:space="preserve" text-anchor="middle" x="236" y="-86.12" font-family="sans" font-size="10.00">repeatmasker_annotation</text>
</g>
<!-- 3&#45;&gt;13 -->
<g id="edge18" class="edge">
<title>3&#45;&gt;13</title>
<path fill="none" stroke="grey" stroke-width="2" d="M185.91,-143.34C193.23,-135.69 201.97,-126.56 210.08,-118.08"/>
<polygon fill="grey" stroke="grey" stroke-width="2" points="212.39,-120.73 216.77,-111.09 207.33,-115.89 212.39,-120.73"/>
</g>
<!-- 4&#45;&gt;3 -->
<g id="edge5" class="edge">
<title>4&#45;&gt;3</title>
<path fill="none" stroke="grey" stroke-width="2" d="M140.59,-215.34C144.39,-208.34 148.85,-200.12 153.11,-192.28"/>
<polygon fill="grey" stroke="grey" stroke-width="2" points="156.14,-194.02 157.84,-183.56 149.99,-190.68 156.14,-194.02"/>
</g>
<!-- 5 -->
<g id="node6" class="node">
<title>5</title>
<path fill="none" stroke="#56c9d8" stroke-width="2" d="M161.75,-324C161.75,-324 108.25,-324 108.25,-324 102.25,-324 96.25,-318 96.25,-312 96.25,-312 96.25,-300 96.25,-300 96.25,-294 102.25,-288 108.25,-288 108.25,-288 161.75,-288 161.75,-288 167.75,-288 173.75,-294 173.75,-300 173.75,-300 173.75,-312 173.75,-312 173.75,-318 167.75,-324 161.75,-324"/>
<text xml:space="preserve" text-anchor="middle" x="135" y="-302.12" font-family="sans" font-size="10.00">repeatmodeler</text>
</g>
<!-- 5&#45;&gt;4 -->
<g id="edge8" class="edge">
<title>5&#45;&gt;4</title>
<path fill="none" stroke="grey" stroke-width="2" d="M133.99,-287.34C133.61,-280.75 133.18,-273.08 132.75,-265.67"/>
<polygon fill="grey" stroke="grey" stroke-width="2" points="136.26,-265.71 132.2,-255.92 129.27,-266.11 136.26,-265.71"/>
</g>
<!-- 6 -->
<g id="node7" class="node">
<title>6</title>
<path fill="none" stroke="#d88d56" stroke-width="2" d="M150,-396C150,-396 120,-396 120,-396 114,-396 108,-390 108,-384 108,-384 108,-372 108,-372 108,-366 114,-360 120,-360 120,-360 150,-360 150,-360 156,-360 162,-366 162,-372 162,-372 162,-384 162,-384 162,-390 156,-396 150,-396"/>
<text xml:space="preserve" text-anchor="middle" x="135" y="-374.12" font-family="sans" font-size="10.00">build_db</text>
</g>
<!-- 6&#45;&gt;5 -->
<g id="edge9" class="edge">
<title>6&#45;&gt;5</title>
<path fill="none" stroke="grey" stroke-width="2" d="M135,-359.34C135,-352.75 135,-345.08 135,-337.67"/>
<polygon fill="grey" stroke="grey" stroke-width="2" points="138.5,-337.93 135,-327.93 131.5,-337.93 138.5,-337.93"/>
</g>
<!-- 7&#45;&gt;6 -->
<g id="edge10" class="edge">
<title>7&#45;&gt;6</title>
<path fill="none" stroke="grey" stroke-width="2" d="M135,-431.34C135,-424.75 135,-417.08 135,-409.67"/>
<polygon fill="grey" stroke="grey" stroke-width="2" points="138.5,-409.93 135,-399.93 131.5,-409.93 138.5,-409.93"/>
</g>
<!-- 8 -->
<g id="node9" class="node">
<title>8</title>
<path fill="none" stroke="#5692d8" stroke-width="2" d="M222.25,-252C222.25,-252 189.75,-252 189.75,-252 183.75,-252 177.75,-246 177.75,-240 177.75,-240 177.75,-228 177.75,-228 177.75,-222 183.75,-216 189.75,-216 189.75,-216 222.25,-216 222.25,-216 228.25,-216 234.25,-222 234.25,-228 234.25,-228 234.25,-240 234.25,-240 234.25,-246 228.25,-252 222.25,-252"/>
<text xml:space="preserve" text-anchor="middle" x="206" y="-230.12" font-family="sans" font-size="10.00">testrainer</text>
</g>
<!-- 8&#45;&gt;3 -->
<g id="edge6" class="edge">
<title>8&#45;&gt;3</title>
<path fill="none" stroke="grey" stroke-width="2" d="M196.66,-215.34C192.97,-208.34 188.62,-200.12 184.48,-192.28"/>
<polygon fill="grey" stroke="grey" stroke-width="2" points="187.64,-190.78 179.88,-183.58 181.46,-194.05 187.64,-190.78"/>
</g>
<!-- 9 -->
<g id="node10" class="node">
<title>9</title>
<path fill="none" stroke="#afd856" stroke-width="2" d="M301,-545.75C301,-545.75 237,-545.75 237,-545.75 231,-545.75 225,-539.75 225,-533.75 225,-533.75 225,-516 225,-516 225,-510 231,-504 237,-504 237,-504 301,-504 301,-504 307,-504 313,-510 313,-516 313,-516 313,-533.75 313,-533.75 313,-539.75 307,-545.75 301,-545.75"/>
<text xml:space="preserve" text-anchor="middle" x="269" y="-532.25" font-family="sans" font-size="10.00">prep_genome</text>
<text xml:space="preserve" text-anchor="middle" x="269" y="-521" font-family="sans" font-size="10.00">outdir: results</text>
<text xml:space="preserve" text-anchor="middle" x="269" y="-509.75" font-family="sans" font-size="10.00">species: dummy</text>
</g>
<!-- 9&#45;&gt;8 -->
<g id="edge12" class="edge">
<title>9&#45;&gt;8</title>
<path fill="none" stroke="grey" stroke-width="2" d="M246.16,-503.22C236.98,-493.5 227.32,-481.16 222,-468 194.47,-399.86 197.9,-311.41 202.25,-265.57"/>
<polygon fill="grey" stroke="grey" stroke-width="2" points="205.72,-266.1 203.28,-255.79 198.76,-265.37 205.72,-266.1"/>
</g>
<!-- 12 -->
<g id="node13" class="node">
<title>12</title>
<path fill="none" stroke="#70d856" stroke-width="2" d="M294.62,-468C294.62,-468 243.38,-468 243.38,-468 237.38,-468 231.38,-462 231.38,-456 231.38,-456 231.38,-444 231.38,-444 231.38,-438 237.38,-432 243.38,-432 243.38,-432 294.62,-432 294.62,-432 300.62,-432 306.62,-438 306.62,-444 306.62,-444 306.62,-456 306.62,-456 306.62,-462 300.62,-468 294.62,-468"/>
<text xml:space="preserve" text-anchor="middle" x="269" y="-446.12" font-family="sans" font-size="10.00">repeatmasker</text>
</g>
<!-- 9&#45;&gt;12 -->
<g id="edge16" class="edge">
<title>9&#45;&gt;12</title>
<path fill="none" stroke="grey" stroke-width="2" d="M269,-503.19C269,-496.43 269,-488.79 269,-481.47"/>
<polygon fill="grey" stroke="grey" stroke-width="2" points="272.5,-481.56 269,-471.56 265.5,-481.56 272.5,-481.56"/>
</g>
<!-- 9&#45;&gt;13 -->
<g id="edge17" class="edge">
<title>9&#45;&gt;13</title>
<path fill="none" stroke="grey" stroke-width="2" d="M290.66,-503.06C299.74,-493.22 309.64,-480.83 316,-468 334.01,-431.68 336,-419.54 336,-379 336,-379 336,-379 336,-233 336,-185.8 298.61,-143.23 269.55,-117.27"/>
<polygon fill="grey" stroke="grey" stroke-width="2" points="271.86,-114.64 261.99,-110.78 267.3,-119.95 271.86,-114.64"/>
</g>
<!-- 10 -->
<g id="node11" class="node">
<title>10</title>
<path fill="none" stroke="#56c9d8" stroke-width="2" d="M295.75,-324C295.75,-324 242.25,-324 242.25,-324 236.25,-324 230.25,-318 230.25,-312 230.25,-312 230.25,-300 230.25,-300 230.25,-294 236.25,-288 242.25,-288 242.25,-288 295.75,-288 295.75,-288 301.75,-288 307.75,-294 307.75,-300 307.75,-300 307.75,-312 307.75,-312 307.75,-318 301.75,-324 295.75,-324"/>
<text xml:space="preserve" text-anchor="middle" x="269" y="-302.12" font-family="sans" font-size="10.00">repeatmodeler</text>
</g>
<!-- 10&#45;&gt;8 -->
<g id="edge13" class="edge">
<title>10&#45;&gt;8</title>
<path fill="none" stroke="grey" stroke-width="2" d="M253.1,-287.34C246.29,-279.77 238.18,-270.75 230.62,-262.35"/>
<polygon fill="grey" stroke="grey" stroke-width="2" points="233.43,-260.24 224.14,-255.15 228.22,-264.93 233.43,-260.24"/>
</g>
<!-- 11 -->
<g id="node12" class="node">
<title>11</title>
<path fill="none" stroke="#d88d56" stroke-width="2" d="M284,-396C284,-396 254,-396 254,-396 248,-396 242,-390 242,-384 242,-384 242,-372 242,-372 242,-366 248,-360 254,-360 254,-360 284,-360 284,-360 290,-360 296,-366 296,-372 296,-372 296,-384 296,-384 296,-390 290,-396 284,-396"/>
<text xml:space="preserve" text-anchor="middle" x="269" y="-374.12" font-family="sans" font-size="10.00">build_db</text>
</g>
<!-- 11&#45;&gt;10 -->
<g id="edge14" class="edge">
<title>11&#45;&gt;10</title>
<path fill="none" stroke="grey" stroke-width="2" d="M269,-359.34C269,-352.75 269,-345.08 269,-337.67"/>
<polygon fill="grey" stroke="grey" stroke-width="2" points="272.5,-337.93 269,-327.93 265.5,-337.93 272.5,-337.93"/>
</g>
<!-- 12&#45;&gt;11 -->
<g id="edge15" class="edge">
<title>12&#45;&gt;11</title>
<path fill="none" stroke="grey" stroke-width="2" d="M269,-431.34C269,-424.75 269,-417.08 269,-409.67"/>
<polygon fill="grey" stroke="grey" stroke-width="2" points="272.5,-409.93 269,-399.93 265.5,-409.93 272.5,-409.93"/>
</g>
<!-- 13&#45;&gt;0 -->
<g id="edge2" class="edge">
<title>13&#45;&gt;0</title>
<path fill="none" stroke="grey" stroke-width="2" d="M217.83,-71.34C209.88,-63.6 200.37,-54.36 191.57,-45.81"/>
<polygon fill="grey" stroke="grey" stroke-width="2" points="194.19,-43.47 184.58,-39.01 189.31,-48.49 194.19,-43.47"/>
</g>
</g>
</svg>
