<?xml version="1.0" encoding="UTF-8" standalone="no"?>
<!DOCTYPE svg PUBLIC "-//W3C//DTD SVG 1.1//EN"
 "http://www.w3.org/Graphics/SVG/1.1/DTD/svg11.dtd">
<!-- Generated by graphviz version 13.1.2 (20250808.2320)
 -->
<!-- Title: snakemake_dag Pages: 1 -->
<svg width="548pt" height="332pt"
 viewBox="0.00 0.00 548.00 332.00" xmlns="http://www.w3.org/2000/svg" xmlns:xlink="http://www.w3.org/1999/xlink">
<g id="graph0" class="graph" transform="scale(1 1) rotate(0) translate(4 328)">
<title>snakemake_dag</title>
<polygon fill="white" stroke="none" points="-4,4 -4,-328 544.25,-328 544.25,4 -4,4"/>
<!-- 0 -->
<g id="node1" class="node">
<title>0</title>
<path fill="none" stroke="#d85656" stroke-width="2" d="M285.12,-36C285.12,-36 255.12,-36 255.12,-36 249.12,-36 243.12,-30 243.12,-24 243.12,-24 243.12,-12 243.12,-12 243.12,-6 249.12,0 255.12,0 255.12,0 285.12,0 285.12,0 291.12,0 297.12,-6 297.12,-12 297.12,-12 297.12,-24 297.12,-24 297.12,-30 291.12,-36 285.12,-36"/>
<text xml:space="preserve" text-anchor="middle" x="270.12" y="-14.12" font-family="sans" font-size="10.00">all</text>
</g>
<!-- 1 -->
<g id="node2" class="node">
<title>1</title>
<path fill="none" stroke="#88d856" stroke-width="2" d="M156.25,-108C156.25,-108 12,-108 12,-108 6,-108 0,-102 0,-96 0,-96 0,-84 0,-84 0,-78 6,-72 12,-72 12,-72 156.25,-72 156.25,-72 162.25,-72 168.25,-78 168.25,-84 168.25,-84 168.25,-96 168.25,-96 168.25,-102 162.25,-108 156.25,-108"/>
<text xml:space="preserve" text-anchor="middle" x="84.12" y="-91.75" font-family="sans" font-size="10.00">combine_samples_with_uppercase</text>
<text xml:space="preserve" text-anchor="middle" x="84.12" y="-80.5" font-family="sans" font-size="10.00">sample: 1</text>
</g>
<!-- 1&#45;&gt;0 -->
<g id="edge1" class="edge">
<title>1&#45;&gt;0</title>
<path fill="none" stroke="grey" stroke-width="2" d="M131.54,-71.15C162.01,-59.69 201.16,-44.96 230.07,-34.08"/>
<polygon fill="grey" stroke="grey" stroke-width="2" points="231.21,-37.39 239.33,-30.59 228.74,-30.83 231.21,-37.39"/>
</g>
<!-- 2 -->
<g id="node3" class="node">
<title>2</title>
<path fill="none" stroke="#d8bc56" stroke-width="2" d="M301.75,-180C301.75,-180 238.5,-180 238.5,-180 232.5,-180 226.5,-174 226.5,-168 226.5,-168 226.5,-156 226.5,-156 226.5,-150 232.5,-144 238.5,-144 238.5,-144 301.75,-144 301.75,-144 307.75,-144 313.75,-150 313.75,-156 313.75,-156 313.75,-168 313.75,-168 313.75,-174 307.75,-180 301.75,-180"/>
<text xml:space="preserve" text-anchor="middle" x="270.12" y="-158.12" font-family="sans" font-size="10.00">combine_results</text>
</g>
<!-- 2&#45;&gt;1 -->
<g id="edge4" class="edge">
<title>2&#45;&gt;1</title>
<path fill="none" stroke="grey" stroke-width="2" d="M225.57,-144.23C201.06,-135.01 170.32,-123.44 143.76,-113.44"/>
<polygon fill="grey" stroke="grey" stroke-width="2" points="145.32,-110.29 134.73,-110.04 142.85,-116.84 145.32,-110.29"/>
</g>
<!-- 9 -->
<g id="node10" class="node">
<title>9</title>
<path fill="none" stroke="#88d856" stroke-width="2" d="M342.25,-108C342.25,-108 198,-108 198,-108 192,-108 186,-102 186,-96 186,-96 186,-84 186,-84 186,-78 192,-72 198,-72 198,-72 342.25,-72 342.25,-72 348.25,-72 354.25,-78 354.25,-84 354.25,-84 354.25,-96 354.25,-96 354.25,-102 348.25,-108 342.25,-108"/>
<text xml:space="preserve" text-anchor="middle" x="270.12" y="-91.75" font-family="sans" font-size="10.00">combine_samples_with_uppercase</text>
<text xml:space="preserve" text-anchor="middle" x="270.12" y="-80.5" font-family="sans" font-size="10.00">sample: 2</text>
</g>
<!-- 2&#45;&gt;9 -->
<g id="edge11" class="edge">
<title>2&#45;&gt;9</title>
<path fill="none" stroke="grey" stroke-width="2" d="M270.12,-143.34C270.12,-136.75 270.12,-129.08 270.12,-121.67"/>
<polygon fill="grey" stroke="grey" stroke-width="2" points="273.63,-121.93 270.13,-111.93 266.63,-121.93 273.63,-121.93"/>
</g>
<!-- 10 -->
<g id="node11" class="node">
<title>10</title>
<path fill="none" stroke="#88d856" stroke-width="2" d="M528.25,-108C528.25,-108 384,-108 384,-108 378,-108 372,-102 372,-96 372,-96 372,-84 372,-84 372,-78 378,-72 384,-72 384,-72 528.25,-72 528.25,-72 534.25,-72 540.25,-78 540.25,-84 540.25,-84 540.25,-96 540.25,-96 540.25,-102 534.25,-108 528.25,-108"/>
<text xml:space="preserve" text-anchor="middle" x="456.12" y="-91.75" font-family="sans" font-size="10.00">combine_samples_with_uppercase</text>
<text xml:space="preserve" text-anchor="middle" x="456.12" y="-80.5" font-family="sans" font-size="10.00">sample: 3</text>
</g>
<!-- 2&#45;&gt;10 -->
<g id="edge12" class="edge">
<title>2&#45;&gt;10</title>
<path fill="none" stroke="grey" stroke-width="2" d="M314.68,-144.23C339.19,-135.01 369.93,-123.44 396.49,-113.44"/>
<polygon fill="grey" stroke="grey" stroke-width="2" points="397.4,-116.84 405.52,-110.04 394.93,-110.29 397.4,-116.84"/>
</g>
<!-- 3 -->
<g id="node4" class="node">
<title>3</title>
<path fill="none" stroke="#56c1d8" stroke-width="2" d="M202.38,-252C202.38,-252 151.88,-252 151.88,-252 145.88,-252 139.88,-246 139.88,-240 139.88,-240 139.88,-228 139.88,-228 139.88,-222 145.88,-216 151.88,-216 151.88,-216 202.38,-216 202.38,-216 208.38,-216 214.38,-222 214.38,-228 214.38,-228 214.38,-240 214.38,-240 214.38,-246 208.38,-252 202.38,-252"/>
<text xml:space="preserve" text-anchor="middle" x="177.12" y="-230.12" font-family="sans" font-size="10.00">to_uppercase</text>
</g>
<!-- 3&#45;&gt;2 -->
<g id="edge5" class="edge">
<title>3&#45;&gt;2</title>
<path fill="none" stroke="grey" stroke-width="2" d="M200.59,-215.34C211.3,-207.27 224.2,-197.57 235.96,-188.72"/>
<polygon fill="grey" stroke="grey" stroke-width="2" points="238.04,-191.53 243.92,-182.72 233.83,-185.94 238.04,-191.53"/>
</g>
<!-- 4 -->
<g id="node5" class="node">
<title>4</title>
<path fill="none" stroke="#56d88a" stroke-width="2" d="M200.5,-324C200.5,-324 153.75,-324 153.75,-324 147.75,-324 141.75,-318 141.75,-312 141.75,-312 141.75,-300 141.75,-300 141.75,-294 147.75,-288 153.75,-288 153.75,-288 200.5,-288 200.5,-288 206.5,-288 212.5,-294 212.5,-300 212.5,-300 212.5,-312 212.5,-312 212.5,-318 206.5,-324 200.5,-324"/>
<text xml:space="preserve" text-anchor="middle" x="177.12" y="-307.75" font-family="sans" font-size="10.00">concat_lines</text>
<text xml:space="preserve" text-anchor="middle" x="177.12" y="-296.5" font-family="sans" font-size="10.00">sample: 1</text>
</g>
<!-- 4&#45;&gt;3 -->
<g id="edge8" class="edge">
<title>4&#45;&gt;3</title>
<path fill="none" stroke="grey" stroke-width="2" d="M177.12,-287.34C177.12,-280.75 177.12,-273.08 177.12,-265.67"/>
<polygon fill="grey" stroke="grey" stroke-width="2" points="180.63,-265.93 177.13,-255.93 173.63,-265.93 180.63,-265.93"/>
</g>
<!-- 5 -->
<g id="node6" class="node">
<title>5</title>
<path fill="none" stroke="#56c1d8" stroke-width="2" d="M295.38,-252C295.38,-252 244.88,-252 244.88,-252 238.88,-252 232.88,-246 232.88,-240 232.88,-240 232.88,-228 232.88,-228 232.88,-222 238.88,-216 244.88,-216 244.88,-216 295.38,-216 295.38,-216 301.38,-216 307.38,-222 307.38,-228 307.38,-228 307.38,-240 307.38,-240 307.38,-246 301.38,-252 295.38,-252"/>
<text xml:space="preserve" text-anchor="middle" x="270.12" y="-230.12" font-family="sans" font-size="10.00">to_uppercase</text>
</g>
<!-- 5&#45;&gt;2 -->
<g id="edge6" class="edge">
<title>5&#45;&gt;2</title>
<path fill="none" stroke="grey" stroke-width="2" d="M270.12,-215.34C270.12,-208.75 270.12,-201.08 270.12,-193.67"/>
<polygon fill="grey" stroke="grey" stroke-width="2" points="273.63,-193.93 270.13,-183.93 266.63,-193.93 273.63,-193.93"/>
</g>
<!-- 6 -->
<g id="node7" class="node">
<title>6</title>
<path fill="none" stroke="#56d88a" stroke-width="2" d="M293.5,-324C293.5,-324 246.75,-324 246.75,-324 240.75,-324 234.75,-318 234.75,-312 234.75,-312 234.75,-300 234.75,-300 234.75,-294 240.75,-288 246.75,-288 246.75,-288 293.5,-288 293.5,-288 299.5,-288 305.5,-294 305.5,-300 305.5,-300 305.5,-312 305.5,-312 305.5,-318 299.5,-324 293.5,-324"/>
<text xml:space="preserve" text-anchor="middle" x="270.12" y="-307.75" font-family="sans" font-size="10.00">concat_lines</text>
<text xml:space="preserve" text-anchor="middle" x="270.12" y="-296.5" font-family="sans" font-size="10.00">sample: 2</text>
</g>
<!-- 6&#45;&gt;5 -->
<g id="edge9" class="edge">
<title>6&#45;&gt;5</title>
<path fill="none" stroke="grey" stroke-width="2" d="M270.12,-287.34C270.12,-280.75 270.12,-273.08 270.12,-265.67"/>
<polygon fill="grey" stroke="grey" stroke-width="2" points="273.63,-265.93 270.13,-255.93 266.63,-265.93 273.63,-265.93"/>
</g>
<!-- 7 -->
<g id="node8" class="node">
<title>7</title>
<path fill="none" stroke="#56c1d8" stroke-width="2" d="M388.38,-252C388.38,-252 337.88,-252 337.88,-252 331.88,-252 325.88,-246 325.88,-240 325.88,-240 325.88,-228 325.88,-228 325.88,-222 331.88,-216 337.88,-216 337.88,-216 388.38,-216 388.38,-216 394.38,-216 400.38,-222 400.38,-228 400.38,-228 400.38,-240 400.38,-240 400.38,-246 394.38,-252 388.38,-252"/>
<text xml:space="preserve" text-anchor="middle" x="363.12" y="-230.12" font-family="sans" font-size="10.00">to_uppercase</text>
</g>
<!-- 7&#45;&gt;2 -->
<g id="edge7" class="edge">
<title>7&#45;&gt;2</title>
<path fill="none" stroke="grey" stroke-width="2" d="M339.66,-215.34C328.95,-207.27 316.05,-197.57 304.29,-188.72"/>
<polygon fill="grey" stroke="grey" stroke-width="2" points="306.42,-185.94 296.33,-182.72 302.21,-191.53 306.42,-185.94"/>
</g>
<!-- 8 -->
<g id="node9" class="node">
<title>8</title>
<path fill="none" stroke="#56d88a" stroke-width="2" d="M386.5,-324C386.5,-324 339.75,-324 339.75,-324 333.75,-324 327.75,-318 327.75,-312 327.75,-312 327.75,-300 327.75,-300 327.75,-294 333.75,-288 339.75,-288 339.75,-288 386.5,-288 386.5,-288 392.5,-288 398.5,-294 398.5,-300 398.5,-300 398.5,-312 398.5,-312 398.5,-318 392.5,-324 386.5,-324"/>
<text xml:space="preserve" text-anchor="middle" x="363.12" y="-307.75" font-family="sans" font-size="10.00">concat_lines</text>
<text xml:space="preserve" text-anchor="middle" x="363.12" y="-296.5" font-family="sans" font-size="10.00">sample: 3</text>
</g>
<!-- 8&#45;&gt;7 -->
<g id="edge10" class="edge">
<title>8&#45;&gt;7</title>
<path fill="none" stroke="grey" stroke-width="2" d="M363.12,-287.34C363.12,-280.75 363.12,-273.08 363.12,-265.67"/>
<polygon fill="grey" stroke="grey" stroke-width="2" points="366.63,-265.93 363.13,-255.93 359.63,-265.93 366.63,-265.93"/>
</g>
<!-- 9&#45;&gt;0 -->
<g id="edge2" class="edge">
<title>9&#45;&gt;0</title>
<path fill="none" stroke="grey" stroke-width="2" d="M270.12,-71.34C270.12,-64.75 270.12,-57.08 270.12,-49.67"/>
<polygon fill="grey" stroke="grey" stroke-width="2" points="273.63,-49.93 270.13,-39.93 266.63,-49.93 273.63,-49.93"/>
</g>
<!-- 10&#45;&gt;0 -->
<g id="edge3" class="edge">
<title>10&#45;&gt;0</title>
<path fill="none" stroke="grey" stroke-width="2" d="M408.71,-71.15C378.24,-59.69 339.09,-44.96 310.18,-34.08"/>
<polygon fill="grey" stroke="grey" stroke-width="2" points="311.51,-30.83 300.92,-30.59 309.04,-37.39 311.51,-30.83"/>
</g>
</g>
</svg>
